<svg class="svg-icon" style="width: 1em;height: 1em;vertical-align: middle;fill: currentColor;overflow: hidden;" viewBox="0 0 1024 1024" version="1.1" xmlns="http://www.w3.org/2000/svg"><path d="M512 604.8a28.16 28.16 0 0 1-15.36-4.48L263.68 465.28a30.72 30.72 0 0 1-16-26.88V168.32a32 32 0 0 1 16-26.88L497.28 6.4a30.72 30.72 0 0 1 31.36 0l233.6 135.04a32 32 0 0 1 16 26.88v270.08a30.72 30.72 0 0 1-16 26.88L528.64 600.32a28.8 28.8 0 0 1-16.64 4.48zM310.4 420.48L512 537.6l202.88-117.12V186.24L512 69.12 310.4 186.24z" fill="#323333" /><path d="M279.04 168.32L513.28 300.8" fill="#FFFFFF" /><path d="M512 332.16a28.16 28.16 0 0 1-15.36-4.48L263.68 195.84a31.36 31.36 0 0 1 30.72-54.4l233.6 132.48a30.72 30.72 0 0 1 12.16 42.24 32 32 0 0 1-28.16 16z" fill="#323333" /><path d="M740.48 171.52L513.28 300.8" fill="#FFFFFF" /><path d="M512 332.16a31.36 31.36 0 0 1-15.36-58.24l227.84-128a32 32 0 0 1 42.88 11.52 31.36 31.36 0 0 1-12.16 42.88l-227.2 128a28.8 28.8 0 0 1-16 3.84z" fill="#323333" /><path d="M512 595.84a31.36 31.36 0 0 1-30.72-30.72V300.8a31.36 31.36 0 1 1 64 0v264.32a31.36 31.36 0 0 1-33.28 30.72z" fill="#323333" /><path d="M277.12 1008a26.88 26.88 0 0 1-15.36-4.48L27.52 868.48a30.72 30.72 0 0 1-15.36-26.88V571.52a31.36 31.36 0 0 1 15.36-26.88L261.76 409.6a29.44 29.44 0 0 1 30.72 0l234.24 135.04a31.36 31.36 0 0 1 15.36 26.88v270.08a30.72 30.72 0 0 1-15.36 26.88l-234.24 135.04a25.6 25.6 0 0 1-15.36 4.48z m-202.88-184.32l202.88 117.12 202.88-117.12V589.44L277.12 472.32 74.24 589.44z" fill="#323333" /><path d="M43.52 571.52L277.12 704" fill="#FFFFFF" /><path d="M277.12 734.72a33.92 33.92 0 0 1-15.36-3.84L28.16 598.4a30.72 30.72 0 0 1-12.16-42.24 31.36 31.36 0 0 1 42.88-11.52l233.6 131.84a30.72 30.72 0 0 1 11.52 42.88 29.44 29.44 0 0 1-26.88 15.36z" fill="#323333" /><path d="M504.96 574.08L277.12 704" fill="#FFFFFF" /><path d="M277.12 734.72a30.08 30.08 0 0 1-26.88-15.36 31.36 31.36 0 0 1 11.52-42.88l227.84-128a31.36 31.36 0 0 1 42.24 11.52 32 32 0 0 1-11.52 42.88l-227.84 128a32 32 0 0 1-15.36 3.84z" fill="#323333" /><path d="M277.12 999.04a31.36 31.36 0 0 1-31.36-31.36V704a31.36 31.36 0 1 1 64 0v263.68a31.36 31.36 0 0 1-32.64 31.36zM746.88 1009.28a36.48 36.48 0 0 1-16-3.84L497.28 870.4a31.36 31.36 0 0 1-15.36-26.88V576a32 32 0 0 1 15.36-27.52l234.24-135.04a32.64 32.64 0 0 1 30.72 0l234.24 135.04a32 32 0 0 1 15.36 27.52v270.08a31.36 31.36 0 0 1-15.36 26.88l-234.24 135.04a32 32 0 0 1-15.36 1.28zM544 824.96l202.88 117.12 202.88-117.12V591.36l-202.88-117.12L544 591.36z" fill="#323333" /><path d="M513.28 573.44l233.6 131.84" fill="#FFFFFF" /><path d="M746.88 736.64a32 32 0 0 1-15.36-3.84L497.28 600.32a31.36 31.36 0 0 1-11.52-42.24 30.72 30.72 0 0 1 42.24-12.16l234.24 132.48a31.36 31.36 0 0 1-15.36 58.24z" fill="#323333" /><path d="M974.72 576l-227.84 129.28" fill="#FFFFFF" /><path d="M746.88 736.64a30.72 30.72 0 0 1-26.88-16 30.08 30.08 0 0 1 11.52-42.24l227.2-128a30.72 30.72 0 0 1 42.88 11.52 31.36 31.36 0 0 1-11.52 42.24l-227.84 128a33.92 33.92 0 0 1-15.36 4.48z" fill="#323333" /><path d="M746.88 1000.96a31.36 31.36 0 0 1-31.36-31.36V704a31.36 31.36 0 0 1 64 0v264.32a31.36 31.36 0 0 1-32.64 32.64z" fill="#323333" /></svg>